<svg width="64" height="64" viewBox="0 0 64 64" fill="none" xmlns="http://www.w3.org/2000/svg">
<rect width="64" height="64" rx="32" fill="#FBEFD3"/>
<g clip-path="url(#clip0_2_23412)">
<path d="M43.33 32.65V33.65C43.3347 33.8839 43.2572 34.1121 43.1111 34.2949C42.9649 34.4776 42.7593 34.6032 42.53 34.65L41.29 34.9C41.0539 35.8952 40.6552 36.8446 40.11 37.71L40.82 38.77C40.9407 38.9588 40.9945 39.1827 40.9727 39.4058C40.951 39.6288 40.8549 39.8381 40.7 40L39.33 41.37C39.166 41.5323 38.951 41.6328 38.7214 41.6547C38.4918 41.6766 38.2616 41.6184 38.07 41.49L37 40.77C36.1409 41.3317 35.1948 41.7473 34.2 42L34 43.19C33.9532 43.4193 33.8276 43.6249 33.6449 43.7711C33.4621 43.9172 33.2339 43.9947 33 43.99H31C30.7661 43.9947 30.5379 43.9172 30.3551 43.7711C30.1724 43.6249 30.0468 43.4193 30 43.19L29.8 42C28.8052 41.7473 27.8591 41.3317 27 40.77L25.94 41.48C25.7484 41.6084 25.5182 41.6666 25.2886 41.6447C25.059 41.6228 24.844 41.5223 24.68 41.36L23.3 40C23.1377 39.836 23.0372 39.621 23.0153 39.3914C22.9934 39.1618 23.0516 38.9316 23.18 38.74L23.89 37.68C23.3448 36.8146 22.9461 35.8652 22.71 34.87L21.47 34.62C21.2407 34.5732 21.0351 34.4476 20.8889 34.2649C20.7428 34.0821 20.6653 33.8539 20.67 33.62V32.62H27.23C27.23 33.8851 27.7326 35.0984 28.6271 35.9929C29.5216 36.8874 30.7349 37.39 32 37.39C33.2651 37.39 34.4784 36.8874 35.3729 35.9929C36.2674 35.0984 36.77 33.8851 36.77 32.62L43.33 32.65ZM37.17 23.81C37.17 24.4253 37.4144 25.0154 37.8495 25.4505C38.2846 25.8856 38.8747 26.13 39.49 26.13C40.1053 26.13 40.6954 25.8856 41.1305 25.4505C41.5656 25.0154 41.81 24.4253 41.81 23.81C41.81 23.1947 41.5656 22.6046 41.1305 22.1695C40.6954 21.7344 40.1053 21.49 39.49 21.49C38.8747 21.49 38.2846 21.7344 37.8495 22.1695C37.4144 22.6046 37.17 23.1947 37.17 23.81ZM22.2 23.81C22.2 24.4253 22.4444 25.0154 22.8795 25.4505C23.3146 25.8856 23.9047 26.13 24.52 26.13C25.1353 26.13 25.7254 25.8856 26.1605 25.4505C26.5956 25.0154 26.84 24.4253 26.84 23.81C26.84 23.1947 26.5956 22.6046 26.1605 22.1695C25.7254 21.7344 25.1353 21.49 24.52 21.49C23.9047 21.49 23.3146 21.7344 22.8795 22.1695C22.4444 22.6046 22.2 23.1947 22.2 23.81ZM26.8 28.8C26.4412 28.5718 26.0547 28.3904 25.65 28.26C24.5779 27.9587 23.4353 28.0301 22.409 28.4624C21.3827 28.8947 20.5334 29.6624 20 30.64H25.73C26.0263 29.9935 26.3847 29.3773 26.8 28.8ZM38.18 30.67H44C43.4693 29.6867 42.6197 28.9133 41.591 28.4771C40.5623 28.0409 39.4157 27.9679 38.34 28.27C37.9278 28.4019 37.5346 28.5868 37.17 28.82C37.5626 29.4044 37.9007 30.0237 38.18 30.67ZM37.07 30.67C36.6707 29.6332 35.9792 28.7346 35.0792 28.0832C34.1793 27.4317 33.1096 27.0555 32 27C30.8812 27.0493 29.8011 27.4236 28.8917 28.0772C27.9824 28.7308 27.2833 29.6353 26.88 30.68L37.07 30.67ZM28.99 22.91C28.99 23.6818 29.2966 24.4219 29.8423 24.9677C30.3881 25.5134 31.1282 25.82 31.9 25.82C32.6718 25.82 33.412 25.5134 33.9577 24.9677C34.5034 24.4219 34.81 23.6818 34.81 22.91C34.81 22.1382 34.5034 21.3981 33.9577 20.8523C33.412 20.3066 32.6718 20 31.9 20C31.1282 20 30.3881 20.3066 29.8423 20.8523C29.2966 21.3981 28.99 22.1382 28.99 22.91Z" fill="#E9AD21"/>
</g>
<defs>
<clipPath id="clip0_2_23412">
<rect width="24" height="24" fill="white" transform="translate(20 20)"/>
</clipPath>
</defs>
</svg>
