<svg width="64" height="64" viewBox="0 0 64 64" fill="none" xmlns="http://www.w3.org/2000/svg">
<rect width="64" height="64" rx="32" fill="#FBEFD3"/>
<g clip-path="url(#clip0_2_23428)">
<path fill-rule="evenodd" clip-rule="evenodd" d="M42.8736 26.7784C42.6444 26.8607 42.3966 26.8761 42.159 26.823C41.9213 26.7699 41.7037 26.6504 41.5313 26.4784L40.585 25.5304L33.3902 32.7253C33.2708 32.8448 33.129 32.9396 32.973 33.0042C32.8169 33.0689 32.6497 33.1022 32.4807 33.1022C32.3118 33.1022 32.1446 33.0689 31.9885 33.0042C31.8325 32.9396 31.6907 32.8448 31.5713 32.7253L28.8267 29.9807L22.2885 36.519C22.1698 36.6418 22.0279 36.7396 21.871 36.8069C21.7141 36.8743 21.5454 36.9096 21.3746 36.911C21.2039 36.9125 21.0346 36.8798 20.8767 36.8151C20.7187 36.7504 20.5752 36.6549 20.4545 36.5341C20.3339 36.4133 20.2385 36.2697 20.1739 36.1117C20.1093 35.9536 20.0769 35.7843 20.0784 35.6136C20.08 35.4429 20.1155 35.2742 20.183 35.1174C20.2504 34.9605 20.3485 34.8187 20.4713 34.7002L27.9147 27.2516C28.0341 27.1321 28.1759 27.0373 28.332 26.9727C28.488 26.908 28.6553 26.8747 28.8242 26.8747C28.9931 26.8747 29.1603 26.908 29.3164 26.9727C29.4724 27.0373 29.6142 27.1321 29.7336 27.2516L32.4799 29.9979L38.7662 23.7116L37.8199 22.7653C37.6476 22.5932 37.5277 22.3757 37.4742 22.1381C37.4206 21.9005 37.4357 21.6526 37.5176 21.4232C37.5995 21.1939 37.7449 20.9925 37.9368 20.8425C38.1287 20.6926 38.3592 20.6002 38.6016 20.5762C40.1667 20.4219 41.0667 20.4219 42.5736 20.5762C42.8677 20.6066 43.1423 20.7374 43.3512 20.9466C43.5601 21.1558 43.6905 21.4306 43.7205 21.7247C43.8765 23.2299 43.8747 24.1316 43.7205 25.695C43.6963 25.9373 43.604 26.1677 43.454 26.3595C43.3041 26.5513 43.1028 26.6966 42.8736 26.7784ZM40.0913 29.3636C40.2856 29.1752 40.5343 29.053 40.8021 29.0142C41.0698 28.9754 41.343 29.0221 41.5827 29.1476L43.249 30.0219C43.4646 30.1354 43.6436 30.3077 43.765 30.519C43.8864 30.7302 43.9452 30.9716 43.9347 31.215L43.4616 42.5087C43.4479 42.8404 43.3064 43.154 43.0667 43.3837C42.8271 43.6134 42.5079 43.7416 42.1759 43.7413H38.7953C38.6816 43.7413 38.5726 43.6962 38.4923 43.6158C38.4119 43.5354 38.3667 43.4264 38.3667 43.3127V31.2167C38.3666 31.1592 38.3781 31.1022 38.4005 31.0492C38.4229 30.9962 38.4557 30.9482 38.497 30.9082L40.0913 29.3636ZM36.2239 43.3127C36.2239 43.4264 36.1787 43.5354 36.0984 43.6158C36.018 43.6962 35.909 43.7413 35.7953 43.7413H29.3667C29.2531 43.7413 29.1441 43.6962 29.0637 43.6158C28.9833 43.5354 28.9382 43.4264 28.9382 43.3127V33.3459C28.9382 33.3116 28.9639 33.2842 28.9982 33.2876C29.2776 33.3013 29.5519 33.4076 29.7782 33.6047L32.5982 36.0802C32.679 36.1513 32.7837 36.1894 32.8914 36.1869C32.9991 36.1844 33.1019 36.1414 33.1793 36.0664L35.497 33.8173C35.5575 33.7587 35.634 33.7191 35.7168 33.7037C35.7997 33.6883 35.8852 33.6976 35.9628 33.7305C36.0404 33.7635 36.1065 33.8185 36.1529 33.8889C36.1994 33.9592 36.224 34.0416 36.2239 34.1259V43.3127ZM26.0599 35.6619L20.7285 41.1064C20.4925 41.3466 20.3602 41.6698 20.3599 42.0064V42.4556C20.3599 43.1653 20.9359 43.7413 21.6456 43.7413H26.3667C26.4804 43.7413 26.5894 43.6962 26.6698 43.6158C26.7502 43.5354 26.7953 43.4264 26.7953 43.3127V35.9619C26.7955 35.8766 26.7702 35.7932 26.7227 35.7223C26.6752 35.6515 26.6076 35.5965 26.5286 35.5642C26.4496 35.532 26.3628 35.5241 26.2793 35.5415C26.1958 35.5589 26.1194 35.6008 26.0599 35.6619Z" fill="#E9AD21"/>
</g>
<defs>
<clipPath id="clip0_2_23428">
<rect width="24" height="24" fill="white" transform="translate(20 20)"/>
</clipPath>
</defs>
</svg>
