<svg width="64" height="64" viewBox="0 0 64 64" fill="none" xmlns="http://www.w3.org/2000/svg">
<rect width="64" height="64" rx="32" fill="#FBEFD3"/>
<path fill-rule="evenodd" clip-rule="evenodd" d="M29.5865 21.652C30.359 21.382 31.2615 21.125 32 21.125C32.7385 21.125 33.641 21.382 34.4135 21.652C35.2185 21.934 36.0135 22.279 36.5825 22.5405C37.411 22.921 38.0275 23.6975 38.1275 24.6615C38.1915 25.2715 38.25 26.1635 38.25 27.375C38.25 28.5865 38.1915 29.478 38.128 30.0885C38.1147 30.2148 38.093 30.3377 38.063 30.457C38.597 30.554 39.158 30.725 39.663 30.902C40.4685 31.184 41.264 31.529 41.8325 31.7905C42.661 32.171 43.2775 32.9475 43.3775 33.9115C43.4415 34.5215 43.5 35.4135 43.5 36.625C43.5 37.8365 43.4415 38.728 43.378 39.3385C43.278 40.3025 42.661 41.0785 41.8325 41.4595C41.264 41.721 40.4685 42.066 39.6635 42.348C38.891 42.618 37.9885 42.875 37.25 42.875C36.5115 42.875 35.609 42.6185 34.8365 42.348C34.0315 42.066 33.2365 41.721 32.6675 41.4595C32.4252 41.3484 32.2004 41.2028 32 41.027C31.801 41.202 31.576 41.348 31.3325 41.4595C30.764 41.721 29.9685 42.066 29.1635 42.348C28.391 42.618 27.4885 42.875 26.75 42.875C26.0115 42.875 25.109 42.6185 24.3365 42.348C23.5315 42.066 22.7365 41.721 22.1675 41.4595C21.339 41.079 20.7225 40.3025 20.6225 39.3385C20.558 38.7285 20.5 37.8365 20.5 36.625C20.5 35.4135 20.5585 34.522 20.622 33.9115C20.722 32.9475 21.339 32.1715 22.1675 31.7905C22.736 31.529 23.5315 31.184 24.3365 30.902C24.8415 30.7255 25.403 30.5545 25.9375 30.457C25.9067 30.336 25.8849 30.2128 25.8725 30.0885C25.8085 29.4785 25.75 28.5865 25.75 27.375C25.75 26.1635 25.8085 25.272 25.872 24.6615C25.972 23.6975 26.589 22.9215 27.4175 22.5405C27.986 22.279 28.7815 21.934 29.5865 21.652ZM33 36.625C33 37.772 33.0555 38.595 33.1115 39.132C33.1325 39.337 33.264 39.5325 33.503 39.642C34.043 39.8905 34.775 40.207 35.4975 40.46C35.7665 40.5545 36.0195 40.634 36.25 40.698V36.39C36.055 36.3315 35.85 36.262 35.641 36.186C35.0262 35.957 34.4192 35.7075 33.821 35.438C33.549 35.317 33.2845 35.1965 33.038 35.082C33.0119 35.5959 32.9992 36.1104 33 36.625ZM38.25 36.3905V40.698C38.4805 40.634 38.7335 40.5545 39.003 40.46C39.725 40.2075 40.457 39.8905 40.997 39.6425C41.236 39.5325 41.367 39.337 41.3885 39.132C41.4445 38.5945 41.5 37.772 41.5 36.625C41.5 36.0235 41.485 35.511 41.462 35.0825C41.2155 35.197 40.951 35.3175 40.679 35.4385C40.0808 35.708 39.4738 35.9575 38.859 36.1865C38.6505 36.2625 38.445 36.332 38.25 36.3905ZM31 36.625C31 36.0235 30.985 35.511 30.962 35.0825C30.7155 35.197 30.451 35.3175 30.179 35.4385C29.5808 35.708 28.9738 35.9575 28.359 36.1865C28.1505 36.2625 27.945 36.332 27.75 36.3905V40.698C27.9805 40.634 28.2335 40.5545 28.5025 40.46C29.225 40.2075 29.9575 39.8905 30.4975 39.6425C30.736 39.5325 30.8675 39.337 30.8885 39.132C30.9445 38.5945 31 37.772 31 36.625ZM25.141 36.1865C25.3495 36.2625 25.555 36.332 25.75 36.3905V40.698C25.4966 40.6269 25.2457 40.5476 24.9975 40.46C24.275 40.2075 23.5425 39.8905 23.0025 39.6425C22.764 39.5325 22.6325 39.337 22.6115 39.132C22.555 38.5945 22.5 37.772 22.5 36.625C22.5 36.0235 22.515 35.511 22.538 35.0825C22.7845 35.197 23.049 35.3175 23.321 35.4385C23.9192 35.708 24.5262 35.9575 25.141 36.1865ZM27.788 25.8325C27.7619 26.3462 27.7492 26.8606 27.75 27.375C27.75 28.522 27.8055 29.345 27.8615 29.882C27.8825 30.087 28.014 30.2825 28.253 30.392C28.793 30.6405 29.525 30.957 30.2475 31.21C30.5165 31.3045 30.7695 31.384 31 31.448V27.14C30.805 27.0815 30.6 27.012 30.391 26.936C29.7762 26.707 29.1692 26.4575 28.571 26.188C28.299 26.067 28.0345 25.9465 27.788 25.832M33.753 31.2095C33.483 31.304 33.2305 31.3835 33 31.4475V27.14C33.195 27.0815 33.4 27.012 33.609 26.936C34.2238 26.707 34.8308 26.4575 35.429 26.188C35.701 26.067 35.9655 25.9465 36.212 25.832C36.235 26.2605 36.25 26.773 36.25 27.3745C36.25 28.5215 36.1945 29.3445 36.1385 29.8815C36.1175 30.0865 35.986 30.282 35.747 30.3915C35.0948 30.6939 34.4292 30.9668 33.7525 31.2095" fill="#E9AD21"/>
</svg>
